<svg width="8" height="18" viewBox="0 0 8 18" fill="none" xmlns="http://www.w3.org/2000/svg">
<path d="M7.73835 16.0575L7.48685 17.0856C6.73234 17.3834 6.12963 17.6101 5.68083 17.7659C5.23155 17.9222 4.7095 18 4.1147 18C3.20129 18 2.49082 17.7762 1.9841 17.3318C1.47739 16.8856 1.22395 16.3201 1.22395 15.6342C1.22395 15.3687 1.24234 15.0955 1.28057 14.8172C1.31913 14.5386 1.38043 14.2249 1.46432 13.8741L2.40725 10.5367C2.49114 10.2171 2.56245 9.9143 2.61956 9.62795C2.67747 9.34338 2.70538 9.08155 2.70538 8.84585C2.70538 8.41964 2.61714 8.12151 2.44146 7.9539C2.26577 7.78677 1.93054 7.70191 1.43286 7.70191C1.1891 7.70191 0.938565 7.74095 0.68319 7.81645C0.426685 7.89227 0.207447 7.96551 0.0233765 8.03359L0.275525 7.00467C0.893233 6.75317 1.48368 6.5378 2.04847 6.35905C2.61327 6.17982 3.14692 6.09013 3.6517 6.09013C4.55883 6.09013 5.25881 6.30936 5.75036 6.74784C6.24192 7.18664 6.48761 7.75547 6.48761 8.45642C6.48761 8.60145 6.47148 8.85699 6.43679 9.22222C6.40292 9.58827 6.33984 9.92366 6.24788 10.2287L5.30898 13.5528C5.23203 13.8198 5.16282 14.125 5.10265 14.4685C5.04054 14.8097 5.01086 15.0704 5.01086 15.2452C5.01086 15.6866 5.10926 15.988 5.30656 16.1482C5.50531 16.3084 5.84764 16.3881 6.33387 16.3881C6.56214 16.3881 6.82187 16.3476 7.11048 16.268C7.39828 16.1885 7.60816 16.1186 7.73835 16.0575ZM7.97647 2.10205C7.97647 2.6812 7.7582 3.17582 7.31956 3.58251C6.88205 3.99066 6.35484 4.1949 5.7381 4.1949C5.11943 4.1949 4.59093 3.99066 4.14842 3.58251C3.70672 3.17565 3.48538 2.6812 3.48538 2.10205C3.48538 1.52402 3.70672 1.0286 4.14842 0.61674C4.59012 0.205526 5.11959 0 5.7381 0C6.35468 0 6.88205 0.20601 7.31956 0.61674C7.75852 1.0286 7.97647 1.52418 7.97647 2.10205Z" fill="#374A59"/>
</svg>
