<svg width="12" height="14" viewBox="0 0 12 14" fill="none" xmlns="http://www.w3.org/2000/svg">
<path d="M9.50378 0C9.50378 0 8.35192 1.11753 7.10617 1.56808C-2.11899 4.90485 1.77166 11.4073 1.89858 11.4287C1.89858 11.4287 2.41589 10.5279 3.11468 10.014C7.54895 6.75421 8.45021 3.00198 8.45021 3.00198C8.45021 3.00198 7.45516 7.51711 3.51021 10.3266C2.63891 10.9467 2.04894 12.4738 1.7992 14C1.7992 14 2.41683 13.7505 2.68241 13.6829C2.78598 13.007 3.0025 12.3599 3.36858 11.7818C8.88213 12.4382 10.6879 7.99549 10.9238 6.44635C11.4806 2.7876 9.50378 0 9.50378 0Z" fill="white"/>
</svg>
