<svg width="12" height="12" viewBox="0 0 12 12" fill="none" xmlns="http://www.w3.org/2000/svg">
<g clip-path="url(#clip0_1_1517)">
<path d="M11.688 10.203L6.98258 5.4975L1.48509 0H1.05545L0.967726 0.222914C0.736187 0.811289 0.637258 1.41307 0.681672 1.96312C0.732297 2.59013 0.970492 3.13296 1.37055 3.53302L5.66219 7.82466L6.22825 7.25859L10.1959 11.6951C10.5906 12.0898 11.2699 12.1133 11.688 11.6951C12.0994 11.2837 12.0994 10.6144 11.688 10.203Z" fill="white"/>
<path d="M3.67347 6.83063L0.31227 10.1918C-0.0991054 10.6032 -0.0991054 11.2726 0.31227 11.684C0.703067 12.0748 1.37912 12.1093 1.80442 11.684L5.16564 8.32275L3.67347 6.83063Z" fill="white"/>
<path d="M11.4903 1.99799L9.58361 3.90463L9.0862 3.40724L10.9929 1.50057L10.4955 1.00318L8.58883 2.90982L8.09144 2.41243L9.99811 0.50579L9.50074 0.00842285L7.01379 2.49538C6.70954 2.79962 6.52788 3.20359 6.50219 3.63292C6.4957 3.74169 6.47104 3.84868 6.43015 3.95045L8.04567 5.56597C8.14743 5.52502 8.25445 5.50039 8.3632 5.4939C8.79253 5.46828 9.1965 5.28657 9.50074 4.98233L11.9877 2.4954L11.4903 1.99799Z" fill="white"/>
</g>
<defs>
<clipPath id="clip0_1_1517">
<rect width="12" height="12" fill="white"/>
</clipPath>
</defs>
</svg>
