<svg width="16" height="16" viewBox="0 0 16 16" fill="none" xmlns="http://www.w3.org/2000/svg">
<path d="M15.3039 5.5819L10.8978 5.16527C10.6201 5.14002 10.38 4.96327 10.2665 4.69813L8.68839 0.872678C8.43589 0.241415 7.53937 0.241415 7.28686 0.872678L5.72133 4.69813C5.62032 4.96327 5.36782 5.14002 5.09006 5.16527L0.683846 5.5819C0.0273324 5.64503 -0.237798 6.46567 0.254587 6.90756L3.57503 9.82399C3.78966 10.0134 3.87804 10.2911 3.81491 10.5689L2.81752 14.6593C2.66601 15.3034 3.3604 15.8335 3.94116 15.4927L7.61512 13.3337C7.855 13.1948 8.14538 13.1948 8.38526 13.3337L12.0593 15.4927C12.6401 15.8335 13.3345 15.316 13.1829 14.6593L12.1981 10.5689C12.135 10.2911 12.2233 10.0134 12.438 9.82399L15.7584 6.90756C16.2382 6.46567 15.9604 5.64503 15.3039 5.5819Z" fill="#EBECED"/>
</svg>
