<svg width="14" height="14" viewBox="0 0 14 14" fill="none" xmlns="http://www.w3.org/2000/svg">
<g clip-path="url(#clip0_13_76)">
<path d="M1.77855 4.36524L5.01819 4.78172C5.13125 5.0688 5.70093 6.48186 5.80804 6.73472C5.80804 6.73472 5.80804 6.73472 5.80654 6.73472C4.86796 7.1988 3.92939 7.66139 2.99081 8.12547C3.31656 8.06598 3.64677 8.03623 3.97847 8.03623C4.4128 8.03623 4.83821 8.08829 5.24428 8.19092C6.06386 8.39916 6.80461 8.73233 7.52007 9.05512C8.15818 9.3422 8.76208 9.61441 9.3645 9.77059C9.44928 9.7929 9.53109 9.81224 9.6129 9.82859C8.89893 8.36644 6.97864 4.42622 6.59934 3.55905C6.42085 3.15 6.17542 2.99829 5.82738 2.95366L2.0225 2.4643C1.49743 2.39736 1.01699 2.76773 0.948568 3.2928C0.883106 3.81786 1.25348 4.2983 1.77855 4.36524Z" fill="white"/>
<path d="M0.248114 11.1986C0.353722 11.2744 0.474205 11.3101 0.594687 11.3101C0.621461 11.3101 0.646748 11.3086 0.672034 11.3042C0.829703 11.2834 0.978447 11.2001 1.07811 11.0617C1.46335 10.5247 2.05982 10.1023 2.75445 9.87027C3.15309 9.73791 3.56957 9.67097 3.97861 9.67097C5.46159 9.67097 6.73336 10.5575 8.07204 11.0677C8.78898 11.3414 9.53717 11.5436 10.3508 11.5436C10.6929 11.5436 11.0469 11.508 11.4143 11.4262C12.2785 11.2358 13.0193 10.8252 13.5547 10.2496C13.6827 10.1112 13.7987 9.96547 13.9013 9.80929C14.0828 9.5356 14.0069 9.16671 13.7332 8.98525C13.6321 8.91831 13.519 8.88707 13.406 8.88707C13.2126 8.88707 13.0237 8.98078 12.9092 9.15333C12.8631 9.22322 12.8125 9.29016 12.7575 9.35562C12.3856 9.79888 11.8278 10.1172 11.1585 10.2644C10.5412 10.3998 9.85994 10.3596 9.25159 10.202C8.61199 10.0354 7.9932 9.75724 7.33575 9.46123C6.63666 9.14738 5.91525 8.82163 5.13287 8.62232C4.76101 8.52713 4.3713 8.48102 3.97713 8.48102C3.44016 8.48102 2.89427 8.56876 2.37515 8.74132C1.92148 8.89304 1.50054 9.10424 1.12273 9.37051C0.724095 9.65163 0.383471 9.98631 0.109782 10.3671C0.0919325 10.3924 0.0770581 10.4177 0.0636711 10.4444C-0.0657362 10.7018 0.00566094 11.0245 0.248114 11.1986Z" fill="white"/>
<path d="M11.0201 8.43788C12.1793 8.43788 13.1189 7.49822 13.1189 6.33909C13.1189 5.17996 12.1793 4.2403 11.0201 4.2403C9.86101 4.2403 8.92136 5.17996 8.92136 6.33909C8.92136 7.49822 9.86101 8.43788 11.0201 8.43788Z" fill="white"/>
</g>
<defs>
<clipPath id="clip0_13_76">
<rect width="14" height="14" fill="white"/>
</clipPath>
</defs>
</svg>
