<svg width="14" height="14" viewBox="0 0 14 14" fill="none" xmlns="http://www.w3.org/2000/svg">
<g clip-path="url(#clip0_1_1529)">
<path d="M7.03291 12.2681C7.93621 12.2681 8.66847 11.5358 8.66847 10.6325C8.66847 9.72921 7.93621 8.99695 7.03291 8.99695C6.12962 8.99695 5.39735 9.72921 5.39735 10.6325C5.39735 11.5358 6.12962 12.2681 7.03291 12.2681Z" fill="white"/>
<path d="M10.9419 6.69192C10.9176 6.66698 10.892 6.64473 10.867 6.62181L10.7935 6.55237C10.7814 6.53956 10.7679 6.53012 10.7524 6.51798C8.63751 4.59657 5.40078 4.67276 3.38229 6.69125L3.14565 6.92856L2.818 7.25621C2.41889 7.65532 2.42091 8.30591 2.8207 8.70569C3.22116 9.10683 3.87174 9.1075 4.27018 8.70839L4.83515 8.14343C6.11878 6.86047 8.20671 6.86047 9.48968 8.14275L9.89755 8.53782C10.2926 8.93289 10.9371 8.93222 11.3342 8.53445C11.5264 8.34299 11.6322 8.08747 11.6329 7.81578C11.6336 7.54543 11.5291 7.28992 11.3369 7.09913L10.9419 6.69192Z" fill="white"/>
<path d="M13.7283 4.67003L13.3885 4.33025C13.3871 4.3289 13.3864 4.32688 13.3837 4.3262L13.1154 4.05653C13.0682 4.01001 13.017 3.96956 12.9631 3.9345C9.51599 0.908115 4.2729 1.00115 0.935712 4.21159C0.919532 4.22642 0.901329 4.23654 0.885149 4.25272L0.271646 4.86689C-0.0924108 5.23028 -0.0903883 5.82153 0.275691 6.18761C0.641096 6.55302 1.23235 6.55571 1.59641 6.19098L2.20991 5.57815C2.21396 5.57276 2.21733 5.56804 2.22137 5.56467C4.92011 2.95762 9.20115 2.94144 11.9215 5.51141L12.4042 5.99479C12.7676 6.35818 13.3602 6.35683 13.7256 5.99142C14.0903 5.62534 14.0916 5.03342 13.7283 4.67003Z" fill="white"/>
</g>
<defs>
<clipPath id="clip0_1_1529">
<rect width="14" height="14" fill="white"/>
</clipPath>
</defs>
</svg>
